<mxfile host="app.diagrams.net" modified="2024-03-13T21:18:25.231Z" agent="Mozilla/5.0 (Windows NT 10.0; Win64; x64; rv:123.0) Gecko/20100101 Firefox/123.0" etag="VvV1g_rPPATMAKX33yeW" version="24.0.4" type="device">
  <diagram name="Page-1" id="rcCpGe4LHQoRRJq69nRq">
    <mxGraphModel dx="1050" dy="1699" grid="1" gridSize="10" guides="1" tooltips="1" connect="1" arrows="1" fold="1" page="1" pageScale="1" pageWidth="827" pageHeight="1169" math="0" shadow="0">
      <root>
        <mxCell id="0" />
        <mxCell id="1" parent="0" />
        <mxCell id="0zr6-UVzOVLORrUyXy8f-1" value="DVR - Érablière" style="rounded=0;whiteSpace=wrap;html=1;" vertex="1" parent="1">
          <mxGeometry x="80" y="10" width="120" height="60" as="geometry" />
        </mxCell>
        <mxCell id="0zr6-UVzOVLORrUyXy8f-16" style="edgeStyle=orthogonalEdgeStyle;rounded=0;orthogonalLoop=1;jettySize=auto;html=1;exitX=1;exitY=0.5;exitDx=0;exitDy=0;entryX=0;entryY=0.5;entryDx=0;entryDy=0;" edge="1" parent="1" source="0zr6-UVzOVLORrUyXy8f-2" target="0zr6-UVzOVLORrUyXy8f-15">
          <mxGeometry relative="1" as="geometry" />
        </mxCell>
        <mxCell id="0zr6-UVzOVLORrUyXy8f-2" value="EmailImageObserver" style="rounded=0;whiteSpace=wrap;html=1;" vertex="1" parent="1">
          <mxGeometry x="490" y="160" width="120" height="60" as="geometry" />
        </mxCell>
        <mxCell id="0zr6-UVzOVLORrUyXy8f-6" style="edgeStyle=orthogonalEdgeStyle;rounded=0;orthogonalLoop=1;jettySize=auto;html=1;entryX=0;entryY=0.5;entryDx=0;entryDy=0;startArrow=classic;startFill=1;" edge="1" parent="1" source="0zr6-UVzOVLORrUyXy8f-4" target="0zr6-UVzOVLORrUyXy8f-5">
          <mxGeometry relative="1" as="geometry" />
        </mxCell>
        <mxCell id="0zr6-UVzOVLORrUyXy8f-4" value="Actor" style="shape=umlActor;verticalLabelPosition=bottom;verticalAlign=top;html=1;outlineConnect=0;" vertex="1" parent="1">
          <mxGeometry x="125" y="160" width="30" height="60" as="geometry" />
        </mxCell>
        <mxCell id="0zr6-UVzOVLORrUyXy8f-10" style="edgeStyle=orthogonalEdgeStyle;rounded=0;orthogonalLoop=1;jettySize=auto;html=1;exitX=1;exitY=0.5;exitDx=0;exitDy=0;entryX=0;entryY=0.5;entryDx=0;entryDy=0;startArrow=classic;startFill=1;" edge="1" parent="1" source="0zr6-UVzOVLORrUyXy8f-5" target="0zr6-UVzOVLORrUyXy8f-2">
          <mxGeometry relative="1" as="geometry" />
        </mxCell>
        <mxCell id="0zr6-UVzOVLORrUyXy8f-5" value="ErabliereIU" style="rounded=0;whiteSpace=wrap;html=1;" vertex="1" parent="1">
          <mxGeometry x="290" y="160" width="120" height="60" as="geometry" />
        </mxCell>
        <mxCell id="0zr6-UVzOVLORrUyXy8f-13" style="edgeStyle=orthogonalEdgeStyle;rounded=0;orthogonalLoop=1;jettySize=auto;html=1;exitX=0.55;exitY=0.95;exitDx=0;exitDy=0;exitPerimeter=0;entryX=0.5;entryY=0;entryDx=0;entryDy=0;strokeColor=default;startArrow=classic;startFill=1;" edge="1" parent="1" source="0zr6-UVzOVLORrUyXy8f-8" target="0zr6-UVzOVLORrUyXy8f-2">
          <mxGeometry relative="1" as="geometry" />
        </mxCell>
        <mxCell id="0zr6-UVzOVLORrUyXy8f-8" value="gmail ou autre fournisseur de courriel" style="ellipse;shape=cloud;whiteSpace=wrap;html=1;" vertex="1" parent="1">
          <mxGeometry x="360" y="-20" width="350" height="110" as="geometry" />
        </mxCell>
        <mxCell id="0zr6-UVzOVLORrUyXy8f-9" style="edgeStyle=orthogonalEdgeStyle;rounded=0;orthogonalLoop=1;jettySize=auto;html=1;entryX=0.16;entryY=0.55;entryDx=0;entryDy=0;entryPerimeter=0;" edge="1" parent="1" source="0zr6-UVzOVLORrUyXy8f-1" target="0zr6-UVzOVLORrUyXy8f-8">
          <mxGeometry relative="1" as="geometry" />
        </mxCell>
        <mxCell id="0zr6-UVzOVLORrUyXy8f-14" value="" style="shape=image;verticalLabelPosition=bottom;labelBackgroundColor=default;verticalAlign=top;aspect=fixed;imageAspect=0;image=data:image/jpeg,/9j/4AAQSkZJRgABAQAAAQABAAD/2wCEAAoHCBIVFRUWFhUZGBgZHBocHBgZHBwYGhoYGhgaHBwaHBgcIS4lHB4rHxgcJjgnKy8xNTU1GiQ7QDs0Py40NTEBDAwMEA8QGRERGDYhJSs1NTY0MTo/MT00OjE/NDExMTE3Pz00Pj8/Nj80NTE2NTE/PzE1NDExNDE0QDE2OjQ0NP/AABEIAMIBAwMBIgACEQEDEQH/xAAcAAEAAQUBAQAAAAAAAAAAAAAABwIDBAUGCAH/xABLEAACAQIDAwcHCAgDBwUAAAABAgADEQQSIQUxQQYTIlFhcZEHF1JUgZLSFDJCcqGxwdEjM2KCorLC4RUkRDVDU2Nz8PEWJTR0tP/EABkBAQEAAwEAAAAAAAAAAAAAAAABAgMEBf/EACQRAQEAAgICAQMFAAAAAAAAAAABAhEDIQQxQRIUoSIjMmGB/9oADAMBAAIRAxEAPwCGYiICIiAiIgIiICIiAiIgIiICIiAiIgIiICIiAiIgIiICIiAiIgIiICIiAieyOZT0V8BHMp6K+AgeN4nsY00H0V8BKDk9AeAgePInsLMnFR4CV5adr2XwEDx1E9hMKfoDwEtc2isCQtsttw33EDyFE9iotM7gp9gn00k9FfAQPHMT1ngNoYTEF+ZdKmQ2bKBp9mo7RMk0l16K6dggeQ4nrunRQi+UeAlZpp6K+Al0PIMT14cOnor4COYT0V8BGh5Dieu+YUblA7gIqVUQZnCBetsq/adDIPIkT1h/6g2dexr0Qe0qPt3TY4apRqLmQo49JcrDxEDx9E9hYiklvmruPAdUuJRSw6K7hwEDxzE9kcynor4COZT0V8BA8bxPZHMp6K+AlqtSTTorvHAdYgePInsjmU9FfARzKeivgIHjeJ7I5lPRXwEcynor4CB43ieyOZT0V8BHMp6K+AgeN4nsjmU9FfARAuS1VqAAkkAAXJOgAG8ky7MDaODSvSqUn+ZUVla3osLGB8w2Lp1VzU3R1va6MGF+8S4R1TTbB2ImCpsivnLHfbLpw0udwmfiqpVLb2JAA6yTYfaRKL6DNr/4l2VrTAAA4T4yQi2ReU5ZWRPhMooZOyfQW679h1lFeuiIzuwRFF2ZjZQBxJka8ovKE7Flw36OmP8AesOm3aob5i9+vdA7bZ2ycPgw5Rcmc72YWA6lvbQdt5k1MVTYKiOjFiNzA2F9Tv7z7JDlGji8SorFzkckK9R2BexsSAATluCMzWGhteYbUsOKjUKrPRrKcpDhWQsQCLOvAgixNr3kV6HKiWzT4yC8LyixuBcJzjBfQcmpSdewHVR9UiSvyY5U0sZTJAK1Etnp78t9zKfpKeB8YG255M2XMM3o3169Ov2Sq8xMTgqbXsbEkk5gWuSLfS9luGg0tOf5R7QrYWk55yxYMEtZsou13zG7EgEW3asumkDF5X8thQZqGHyvVGjuRdKZ9ED6b9m4ceqR9galfH1XBqlsi5nquc2++VEW4BJytp0VAUnhOb2jicxKDd9LW9yTexPHt6zM7krt58K9XJTaorqudUXOVyZsrWta1nYEG2+Bttr4MYQUXqU+dp1b2ZWyOpADWsCVa6sCCCJY51qIGJwtRubvYuhKOjei4G8a8RbXtmDyk5RHGMgCZEpggLoCWNgWYAALYKqgDcBxvLHJ3GiniFR9adf9G6nddtFbxNu6BL/Inln8sHM1iBWytkYCy1ABqCPouOI3EaidylZbAXt36TzTRaphMWyKxDI91PUy9JD7RYHvnonA4pa1KnVX5rorj95QbfhA2c+zUY3HUsOuepUWmvC5tc9QX6R7AJz1fyj4NTYCo/aq2+8/lIO4livw9n8wnMbP8oWz6hs1RqR/5i5V9ri6j2kTpHcMAykEHLYg3BBbeDxgZUREBERAREQERECh9x7pihpmGYDC2nVKLWJqWKk7rnxt/wCZZepeoh4AHx4SrFpmUjjvHeP+7e2YyVwQNN2/rBG+/bCNqmJl5HE1AqS+GuRfUb7GBcx2DNQg30AIC6g3O85hu04gXHXYkHX/ACivSyqyl8w0VrZrgKNGB1u19OkeJM2SZeq3cSPunzFa036TL0T0rg20369W+FRZ5QtvtVYUrhaaasFN1dxvYn6SKdF6yCeq0bYrEM51+bwH4ntnXY3k5i8Qc10Q1NUptnuU0CZiFy0yQQbEk9IXtOc2Rspq1fmnY01Q/pW+klmylVG7OTcfbLJb1B3XJ3lLhFw+HDMKb0lRWu5TpU1K3yAdNTfNYbySDOI5SbQXEYmrVUEI2VUDfOKIoRSw6yBe3bOt2/sHZCU8tGm+dTrUzsznQjicu+x0G684NqLK7U9XYEBbAksG+bZRqSd1uuTQ3uxKvyqm+Ec3dFzUXOpsPok+A7j2Sjkltuphq6OL3pnVfSS9npn2bu0DqlOytnV8Pi8K9Sm6ZqipcgWOfoFTbc1m3GZ+2eS2LXFVKlOiz0y5YFCCQrbwUvfeTuBgTtTxAIDA3BAIPWCLg+E5vllgExJo02DZVuzZNGaxCqpYahLnMbehbjL3Jeo3yTDq4KuqBSGBBGUlRcHXcBOX8qGOrYdsNWpNa+emwO4hgGAIBHFLg7wRA5Hlhydp0KVCrTBR6rhCpzAdNSVaz3IItrrqGBm+2VtxcNhzQoBFVT0j9OoW0J62O8nqBnCbY2xiMQUZ2vzZuii4UG4YnXUsbC5JvoJvMZtfButMUyEAXp5zZ8x3gjjx3fbMsfVS73Go2zSapUpFVu9RggAsuYtooNtL3O/tm5x/ItqdKpUSsHeiodrBchsM9k1zg2UkEgXtNJi8fetSqUjYUirpcG+dWBBYHh0d33bp2GzOUVbH1aWFVAgqMpqtoctFLM4WwG8KEu1yA1uMlmrpW32zyKpYnENV5x6b9G+QB1JFgCUNie2x3CdC21qez8BTUOK7oCiaFA7XLAsNSqqrC/stvE3ezqYJdyB0tBcXBHdOA5f7PxFWsadELkRVAYkhVZ9cg0Zi2pYnd0kuZBwO3dvVqrs7vnc73I6KD0UUaBR1dnEztNs7JwtHDYh0YKUpjJUR/wBIXuQrFhZiWOTS9iHNhYTiNlbBepiWw9RuZyG1Vm6WTWwCi9mZuHC2szOU+yKVEDmMRVqogvkqEEC1wxXLYKbbhbdeNdbFGAx5xJFGqwFU/qqwsCWGuSpbffgf+z0nk95VPQrfJqxIpswVlO6m+awdb7hm0YbtQeu/CJga7pztOm5VDmDhSQCmtx1242vadPt3YGKfEriKFF3SqlN2yDMwZkGbojpdRuBA9CRNVsyvUajRdrhmRCysLEMVGYEbwb3mYuI6x4ayDJiUK4O4yuAiIgIiICYeLUjpD2js65mRA07tfumuxmFzG4JU9a6buvrm6r4K5JU2vvU/NP5GavaoVKbmsclPKVZ76AMCD0hqN/VKjAwW0adVcyOrrcrmQ3FxvmwpV5zPI/ZOFp56FCvzzgBm0y5VGg03cf8AxOgxOCq0xcjMvWutu8QM9agmNtqoRhq5G/I9u/KZi0sVMrMrqwOoI1HXxI8LwrgaXLLAkCtcrdXOQM2fpnMyc3bKWv0c17AazkOTy1cViMSRYPUfnH10CtmO/iASZpto7PbD1qlBt9Nyveu9W9qlT7ZRhsTUpvnpuUexW41up3qRxEsurtLNx1OJDu+QsHyDKCLZQo7hrrx7ZjcksTRG0WZ2sAjqj6frBlvlJ0DFS6g9s0j4/E/NLBOuylSR+9wPZMYrv9pOltTv0EuVlnRNpcrtQZsPhlKl6uIRwAopnLSc1Wcqu4Kq5QTqSx6p1mBwHOc5Y5dRY79eqcB5LtiFVfGuurg06PWy36b9xICjubrktbOw2RAOJ1PfMVc/XoVaR6S6ekNV8eHtmDt/ZiY7DPRJCvoVY7lddUY/s3uD2MZ3JE4PaWPdNpph0CqjKl9Nztzhva+oOVRbtgQhisO9Oo9OopV0OVlO9T+I4g8QQZshslOY50sc2XON2W3Be/8AGTZtvkvQxYAxFC7KLK6Eh1HUrrqV/ZYTm/NfhdF+U4ooDfJdLeOT8IES0qbOyoilnc2VFF2ZjuAA3mTJyJ5LfIqTNUt8oqAZyNRTTeKYO4tfUnibcBN9sHkrhsLf5PRCMdDUYl6hHVmbcOwWE2uL2XmAysQRwOqk9vG/bAtUnAAA0EjrlNyrGGxlam9LPZqboygXsVGlyRYhlNjrv3aTtKnOUjZlI7d4PcZxXlN2E1ZFxlJcxpqVqKBdil7hx15WLXHU1+EDk9k4tcTiMU9ZxTL2qBRrmCiwRb7yot9ss7Yqnm3ZmzO4IAJ6RzaF26hrNRgMIKzhLgA6336Dq7ZTjMItF3QEG30t3C+vbMpZr0mu3dbI5UYdMPRpqjGstMUUp2uGqsFUEHLYKzi5N/ptpeSbsTBCmco3U0RAfqqAfukc+TnkpUzrjKyFbf8Ax0bQsxFueYcFAJtfeTfgLyc2zzYFXIcAa2IGa5ubj6x042ExVc2ptKlh6b1ar5UXed5JO5VA1ZjuAkYbV5e4uvUWlQ/RB2Coi25xr8Wc6KLam1gLHUzC8ou3GaoqF8/N3Cg6Xc/Oaw48B1LbrM4/YTYn5TTfD02q1lOYIqlrjVWzdSkMRfheB1W16eIoKKuIq1XQvkL03a6ubkaNbMuh1Ft27WXcJyrxuFCVKeIatQY2Ge7rfijhumjdxmn5WbcxFW2Hq0DQysXZWAzO4uN6gLYFm6ySdd0weTVQGt8nfWniQVI4CoBdGHUbi3h1QJ85Lco6WOpZ06LLYOhNypO4g8VO8H8QRN/PP/kz2m+HxyU2OjOaTjrzMVHg4B9pnoCQIiICIiAnI+UxrYCoOs2/hY/hOunG+VBv8kw6z+BH4wND5PjbaGIX/lfc1P8AOShIv5C/7Tr/APSb+alJQgazGbJpvcjot1jce8TU1cLWonMRmUcV1Fu0cJ1MQIv5a8khjlWthyorIuUBjZaiA/MZvosutidLGx4ERdTpNhq6DEo1MqTdXUqQbEAj0gCRqLz0lW2chJZOix32+a31l3HvFj2y3VwJYWYK46mAI8DKPO218cld0WldyLjogsSTwCjU/wB51PJfyeVahWpjFNKkLEUt1Sp2MPoL/EeyS9h9nZfmIidqKq/cJl0sIoNzqe2BiYHBDonKFVQFVALBVGgAHDSbWIkCRZtqvbbSt6L4ZfEEfiZKchzbtX/3Oq3o18N/C9vwgTHERAREQKGQEEEXB4GaZsKEY5OifRPzT1EHep8ZvJj16AYdRG4jeP7dkDhto8iNnVXNQ03ouTctRZqdzxOUXUHtAE+7M5IbNw7h1pmo4Nw1ZmqkN1hW6N+2151T4SoDuDdo08Qf7zQbG5K1aHPfpWfnKjPd9MuYk2tc3Otr6bhpKjdpVBN76njxmTTqGaetTqUj0hpwYaqfbw9svYfFA21hXHVEwTmpUqGmyMajViw1JBAZXYj6NnUC4+YttTrxvI3GvRpO9NXCuWzuoGYIDlVSToLWHiZr+WuzGw+NroRZXbnV6ir6kjrIbMPZMTZ+PxKI9Gn0kdg7JYmzAWzAruHZLjdVKy9vM1XIXfpPUVQzagFjYnutqZ2TckcPSNNkDK9OvhwjZsxcmombNZiNRm0yrbKbaCR1icU9XLny9G9goIAB3jXjO78m+z61Z/lNRnanRzLSDEkNWZcpK335VJF+s24Rdb6HbbN5G4KpUbENStUWoGDIzJdlbNcqDY6gcOE7iYuBw+RFXjvPed8ypipERAREQE4ryon/AClutvxH5ztZw/lSP+XUdbf1JA1HIb/amI/6b/z0pJ8hzYe3sLg9o4h8RUyKVdR0Wckl6fBATwM7yhy52a7ZaeIDnKz2VXY5Vtc6Lv13b9/VA6eJzZ5abPFPnTWITOEzGnU+eyswFsl7EKdbW0lC8u9mm36ci4vdqdVQB1ksgAHaYHTxOa2Jy32di6gpUK+aoQSFKOhIAubZlANgLzoalVVF2YKOskAeJgXImlqcqNnq2RsXQVt9jUQfeZnUdo0H+ZWpt9V1b7jAzInyfYCQnthr43FHqr0/sr1B+EmyQftc/wCaxv8A9in/APoqwJwiIgIiICIiAiIgUsoIsRcdU1WL2Kjaoch6vo+HD2TbxA4XlPyZp4umErgpUS/N1lAIBO/6ymwuhtuBE4XD8idp4ZnFOnSrBrWZaoTdexKtYjfu175OTKDvlHydPRECGtieTGqzZ8XUVVJuaVE5na5vYvayDuue0SV9m7Np01VVRUVBlRFFlVe7r7ZnqijcAJcgIiICIiAiUk2mnxvKnA0r5sQlx9FTnb3UuYG6nC+VI/oKY62/rSfcZ5R8Mv6ulUqHrNkXxJJ+ycbyl5VVcYFVqaIqm4Cksb3B1Jt6I4QOd5Qc5VxNTDoqEu5bMRZhlvclz8xFALH2906nkx5Ki/6TE1WWmfmoi827qRvcm5VTwX51rXynQWOQuz2xO0WdzdUp53FrB2Z+gp/ZzLmt+wJMuIqqis7EKqglmOgCgXJJ6rSojzH8gtmIuVaDWvfWrVPSAtm+fa9uM4Xb3IpVBbDMTbXm3NyfqP19jeIkj7Q23UZVqDDOKT6qzMquy78/NkXUW16RBmoxrgi44+PtHXCo25P7XqUCVpqquWLCtlHOpZcrKrEXCkXBHafZnYnGVahvUqO5/bYt98+bawoTEK4H6xWv9dba+0EeBmOzaQRbxlJWVbjcSB3dUxKWy1dgqKWZjYKq5iSeAFtZl1W6I7/wl7ZVcJVR8+S2YFsnOABkZSGS4zIQbEDWxNtbSCyMBXol1BrUigu4XOpRfSbKRlXtOkyaW2MfT+bjK6/WqOd+7RiZv6G1aFN8ItKrkVcRTasVNVaRRVVSEFQluaALDK2gOawAtKMLtJ3okisPleeoEeo6BhSz02KB6nRQm7ZcxGgcC14GFR5X7XW1sax+stNr+8kwKm0sQzu75WZ3DubAXYOzjQWt0mM6OqKJqYamq0WFcP8AKGRUb9KECsaT2uiq6swyWBJY6giZ9HB4dHzpSDLZ1oHm3QVlbDVDY1RUIrllAOZbEG40vYBTR8qeOHz8NRf6pdfxaZ1Dys1Pp4H2pVv/AAsg++R4O63Z1dmsrUwJQo+VbCn52Hrr3ZG/rEz6XlM2ad7VF76bH+W8iIGVWHUIE1UOXezG3YlR9ZXT+ZRM+jykwL/NxVE9nOID4EyB1ReoRzKHhA9EUsSjfNdW+qwP3S/PN7YamPom/AC1/t3S9SxFZPmPXT6lQAfY4geiokCUdv45N2JxI+sS/wB5aZ1HlntFf9SxH7dEffkv9sCbYkP0vKHjl+c+Gb6ylf6hNhQ8pGJ40KL/AFHI/OBKESP6PlGP0sI37rhvvUTLp+UTDfTo10/dUj+aB2sTlsPy5wDMq52TMbXZGVQT1tuHeZ1AMD7ERAxdo/qqv1H/AJTIERBlWw4CT3tH9VV+o/8AKZ58fFEVKdMLoyXJ103gWlFWKcqBbiwGvcT+EwTiHO9uC7tPpazN2iNF+t+B/Oa96bWIsdzDd1G4+6B3/kcxCjEYpCek1KmwvvslSqD/ADrJG5Q0i+HqoACzKbKdAxGuUnqa1vbIV2ARTdXztRPTBqqLsFJLWAGpBM6XamKq03of5zENTqKGZiekFJ4Lbq4To+2/Vhjb3lLZ7+Ph24+FllJd+5v5ZG2tqUWqtUFU6IE5ty2dWsRkKHUtff8AjpbGqP0VFrHKL94A65Xj1orTSscTiDnDZCQpJKjc2lwLz6uy6RNBHr1s9ZVYWAZQStzc20nLc+KYzO5WS2z1fj2n2vX8vw5XlC4zUV49NvYAB+M1FY6Ta7Ww+VnDWZkYqH42DcOqafEnQd8383DeKyb3uSy/1Wrn4bw5SW73NrVVAQp13ncxHo8Ae2WxT/abx/OVuTlW1t7f0ygFuz7ZpaH3mz6bD3T94lWRvTPtC/lPgY9Q8T+U+hj1DxP5QKgrekPao/Az6mcEEOumosrAg3vcENob63E+Bj1Dx/tPoc9X2wK81TrU+Mqz1PRU/vEf0yjOeo/Z+cqDn0T9n5wK1qP6A9jfmJUKregfYV/EygP+yfs/OVh+wwKlxG7MrLc2ubEXO65Um0yLzGz7tOI3jTvMuhoFxDqfCXQ0sId/fK80C+DLivLAaVK8DIWoL2vra9uyVAKeCn2AyygXVr9LQAW4a3N/DxmLtE5VVVcgNxHRINhfU8FGZu3LpJsbBaNO/wAxL8bAX+yVqxR1UE5HJABJORwCwsT9EgHTgQOuY+CbMiVCQWdVva4voDmsRuJPfMkqGFj36EggjUEEaiWDMY6GTBsg/oKP/Tp/yiQo1MWNmfd6bH7yZN2z0C0qYG4IgHcFAEDJiIgYu0f1VX6j/wApkHplyftWsNOF1a9+yxHtk5YxC1N1G9lYDvKkCRS3I3aCgfoQe50/EiBz5EtPN8/JTaI/0zHuekf65jPyax434Wp7Mp+5pRqOBm62/iEYYbKwbLRVWsb2bTQ9RmlxnPYOrnxFK1MhVKMRnUm5DqnFeHs7JssLiqFZc1MoeOgAYakAleGo4z0sfM4/2rlLvDf+7enxedhjjhLL0v7Trq2EwiKwLKHzKDcrfdccJ0VLaAAwxXFUkREQVEYqWYgC46xppOA21UVGDtVGroBRAC9Aghj0SCQLX3byJmNsm+6rSUb7GuoO6+upI7p53k3h5MMcNXq5X1Pn2t8jjzxk9at/KjbLIWqmmLIWuvDS85/FnQe2Uo1YVnVmLIpsSDdBcArqCRfXrlOPqAZdRx4903eRy48n0/TLqSTv305PK5seXKWTWpp8J6K97fcspvMGptEDohb2J1vvvbs7Jb/xP9n+L+053M2cqDTVf4p+x/F/afRtM+h9v9oG2BlV5qP8Tb0PtP5T7/ijeh9p/KBtgZUDNQNpOd1O/ifwlY2jU/4R/i/KBtg0rBmmG0an/CP8X5SobQq/8E/xflA3Iafc01S4rEHdQP2y021aikg07EGxGuhgbsNrLoaYlDC49gGXDXDAEHMo0Oo3mXxsfaZ3YMe8nxQLwaXA0tLsHax3YIe+nxy8vJrbJ3YFffp/HAW1BudOF9PaOMqCCxB6QPBtfZ3TG2nsfauHpNWq4NEprbM2ZGtcgDRXJ3kcJqq+OxSWDUEW4BF+IIuD86B0KLY3DG3o6ZR3aXHjPtV75VHEgn6qm5v2G1vbNNhG2hVYLTwqu1i2VQWOUWubBt2o8Z0WE5KbcdVZcLTQNrlZgjfvKWuD3wFl6h4SatgtfDYc9dKn/IJE2D5E7aZlDrh6akjM2YuVHEhQdT2Xkv4DCilTp0wSQiqoJ3nKALnwgZURED5LT0Qd4vPNHnM2z623uUvgjzmbZ9bb3KXwQPR1TZdFt9ND+6Ji1OTmEbfQT2XH3Gee/OZtn1tvcpfBHnM2z623uUvggTrX5C7Mc3fDITuuSxNuq5O7WYdTyabLP+nA7j+YkLeczbPrbe5S+CPOZtn1tvcpfBAmB/JZs7grL7p/pmK/klwXBiO9VMinzmbZ9bb3KXwR5zNs+tt7lL4IEonyV0wpVK9lJuVy2Um1gSAbE2mO/kpbhXT2qZG3nM2z623uUvgjzmbZ9bb3KXwQJAqeSJmNzUpn2NCeSN11WtTX91pH/nM2z623uUvgjzmbZ9bb3KXwQJE81FX1hPdMvbC8mFfD1alQ4im+cWAyMLa36zI185m2fW29yl8EeczbPrbe5S+CBI+1/Jdia75vlNNR1ZGP9QmKPJBXtY41PZRY/wBc4LzmbZ9bb3KXwR5zNs+tt7lL4IEnYDySU0QK2KdiL3KqFGpvuJP3zNXyWYbjWqeCyJPOZtn1tvcpfBHnM2z623uUvggS8vkuwfGpUPtX8pdXyY4Li1Q/vD8pDnnM2z623uUvgjzmbZ9bb3KXwQJmHk0wH/MP7/8AaXF8m+zx9F/fMhXzmbZ9bb3KXwR5zNs+tt7lL4IE3Dyc7M40mPe7StfJ7ssf7jxdvzkHeczbPrbe5S+CPOZtn1tvcpfBAnVeQOzB/pl95vzlxeQ+zB/pk/i/OQN5zNs+tt7lL4I85m2fW29yl8ECe25FbNIIOFSx3jpWP2z7W5F7Na2bC02sABmBNgNw1MgPzmbZ9bb3KXwR5zNs+tt7lL4IHoPB8l8DSYNTw1NGAIuq2Nja4v1aDwmwXA0xuUTzZ5zNs+tt7lL4I85m2fW29yl8ED0ytJRuErAnmPzmbZ9bb3KXwR5zNs+tt7lL4IHp2J5i85m2fW29yl8E+wOPiIgIiICIiAiIgIiICIiAiIgIiICIiAiIgIiICIiAiIgIiICIiAiIgIiICIiAiIgIiICIiAiIgIiICIiAiIgIiICIiAiIgIiICIiAiIgIiICIiAiIgf/Z;" vertex="1" parent="1">
          <mxGeometry x="75.5" y="-70" width="129" height="96.63" as="geometry" />
        </mxCell>
        <mxCell id="0zr6-UVzOVLORrUyXy8f-15" value="Azure Vision" style="rounded=0;whiteSpace=wrap;html=1;" vertex="1" parent="1">
          <mxGeometry x="670" y="160" width="120" height="60" as="geometry" />
        </mxCell>
        <mxCell id="0zr6-UVzOVLORrUyXy8f-17" value="SQL" style="shape=cylinder3;whiteSpace=wrap;html=1;boundedLbl=1;backgroundOutline=1;size=15;" vertex="1" parent="1">
          <mxGeometry x="520" y="270" width="60" height="80" as="geometry" />
        </mxCell>
        <mxCell id="0zr6-UVzOVLORrUyXy8f-18" style="edgeStyle=orthogonalEdgeStyle;rounded=0;orthogonalLoop=1;jettySize=auto;html=1;exitX=0.5;exitY=1;exitDx=0;exitDy=0;entryX=0.5;entryY=0;entryDx=0;entryDy=0;entryPerimeter=0;" edge="1" parent="1" source="0zr6-UVzOVLORrUyXy8f-2" target="0zr6-UVzOVLORrUyXy8f-17">
          <mxGeometry relative="1" as="geometry" />
        </mxCell>
      </root>
    </mxGraphModel>
  </diagram>
</mxfile>
